<svg xmlns="http://www.w3.org/2000/svg" width="960" height="360" viewBox="0 0 960 360" role="img" aria-labelledby="title desc">
<title id="title">PDF to Word client-side workflow</title><desc id="desc">From local PDF selection to editable DOCX package assembly.</desc><rect width="960" height="360" rx="28" fill="#070B12"/><circle cx="854" cy="58" r="80" fill="#00D9FF" fill-opacity="0.1"/><circle cx="104" cy="315" r="94" fill="#8B5CF6" fill-opacity="0.10"/><text x="48" y="52" font-size="28" font-family="Inter,Arial,sans-serif" font-weight="800" fill="#F8FAFC">PDF to Word client-side workflow</text><text x="48" y="80" font-size="15" font-family="Inter,Arial,sans-serif" fill="#CBD5E1">From local PDF selection to editable DOCX package assembly.</text><g><rect x="42" y="88" width="170" height="112" rx="18" fill="#111827" stroke="#00D9FF" stroke-opacity="0.45"/><circle cx="70" cy="118" r="16" fill="#00D9FF" fill-opacity="0.18"/><text x="70" y="124" text-anchor="middle" font-size="16" font-weight="700" fill="#00D9FF">1</text><text x="64" y="154" font-size="15" font-weight="700" fill="#F8FAFC">Select PDF</text><text x="64" y="178" font-size="12" fill="#CBD5E1">File stays local</text></g><path d="M220 144 H260" stroke="#00D9FF" stroke-width="3" stroke-linecap="round"/><path d="M253 137 L264 144 L253 151" fill="none" stroke="#00D9FF" stroke-width="3" stroke-linecap="round" stroke-linejoin="round"/><g><rect x="267" y="88" width="170" height="112" rx="18" fill="#111827" stroke="#00D9FF" stroke-opacity="0.45"/><circle cx="295" cy="118" r="16" fill="#00D9FF" fill-opacity="0.18"/><text x="295" y="124" text-anchor="middle" font-size="16" font-weight="700" fill="#00D9FF">2</text><text x="289" y="154" font-size="15" font-weight="700" fill="#F8FAFC">Parse pages</text><text x="289" y="178" font-size="12" fill="#CBD5E1">Read text objects</text></g><path d="M445 144 H485" stroke="#00D9FF" stroke-width="3" stroke-linecap="round"/><path d="M478 137 L489 144 L478 151" fill="none" stroke="#00D9FF" stroke-width="3" stroke-linecap="round" stroke-linejoin="round"/><g><rect x="492" y="88" width="170" height="112" rx="18" fill="#111827" stroke="#00D9FF" stroke-opacity="0.45"/><circle cx="520" cy="118" r="16" fill="#00D9FF" fill-opacity="0.18"/><text x="520" y="124" text-anchor="middle" font-size="16" font-weight="700" fill="#00D9FF">3</text><text x="514" y="154" font-size="15" font-weight="700" fill="#F8FAFC">Build DOCX</text><text x="514" y="178" font-size="12" fill="#CBD5E1">Package XML output</text></g><text x="48" y="282" font-size="14" font-family="Inter,Arial,sans-serif" fill="#94A3B8">Privacy note: inputs are handled in the browser workflow; review output before sharing.</text></svg>