<svg xmlns="http://www.w3.org/2000/svg" width="800" height="450" viewBox="0 0 800 450" role="img" aria-label="Private Document Share Workflow Without Signup cover image">
  <defs>
    <linearGradient id="bg" x1="0" y1="0" x2="1" y2="1">
      <stop offset="0" stop-color="#042f2e"/>
      <stop offset="0.58" stop-color="#0f766e"/>
      <stop offset="1" stop-color="#2dd4bf"/>
    </linearGradient>
    <pattern id="grid" width="70" height="70" patternUnits="userSpaceOnUse">
      <path d="M70 0H0V70" fill="none" stroke="rgba(255,255,255,0.12)" stroke-width="1" stroke-dasharray="12 18"/>
    </pattern>
    <filter id="softShadow" x="-20%" y="-20%" width="140%" height="140%">
      <feDropShadow dx="0" dy="18" stdDeviation="18" flood-color="#000" flood-opacity="0.24"/>
    </filter>
  </defs>
  <rect width="800" height="450" fill="url(#bg)"/>
  <rect width="800" height="450" fill="url(#grid)" opacity="0.58"/>
  <circle cx="508" cy="115" r="8" fill="#ccfbf1" opacity="0.1"/><circle cx="220" cy="242" r="7" fill="#ccfbf1" opacity="0.14"/><circle cx="761" cy="369" r="6" fill="#ccfbf1" opacity="0.18"/><circle cx="716" cy="45" r="5" fill="#ccfbf1" opacity="0.22"/><circle cx="714" cy="172" r="4" fill="#ccfbf1" opacity="0.1"/><circle cx="202" cy="299" r="21" fill="#ccfbf1" opacity="0.14"/><circle cx="364" cy="426" r="20" fill="#ccfbf1" opacity="0.18"/><circle cx="319" cy="103" r="19" fill="#ccfbf1" opacity="0.22"/>
  <path d="M496 0C688 90 656 324 800 450" fill="rgba(255,255,255,0.12)"/>
  <rect x="56" y="45" width="176" height="8" rx="4" fill="#2dd4bf"/>
  <text x="56" y="90" fill="rgba(255,255,255,0.78)" font-family="Inter, Arial, sans-serif" font-size="15" font-weight="800" letter-spacing="3">PRIVACY WORKFLOW</text>
  <text x="56" y="140" fill="#fff" font-family="Inter, Arial, sans-serif" font-size="32" font-weight="850">Private Document Share</text>
  <text x="56" y="176" fill="#fff" font-family="Inter, Arial, sans-serif" font-size="32" font-weight="850">Workflow Without Signup</text>
  <text x="56" y="306" fill="rgba(255,255,255,0.84)" font-family="Inter, Arial, sans-serif" font-size="17" font-weight="650">prepare documents before sending them</text>
  <text x="56" y="327" fill="rgba(255,255,255,0.84)" font-family="Inter, Arial, sans-serif" font-size="17" font-weight="650">externally</text>
  <g filter="url(#softShadow)"><g transform="translate(576 77)"><path d="M63 10.08l42.84 15.12v35.28c0 27.72-17.64 47.88-42.84 60.48-42.84-12.600000000000001-42.84-32.76-42.84-60.48V25.200000000000003z" fill="rgba(255,255,255,0.14)"/><path d="M42.84 63l15.12 15.12 30.24-35.28" stroke="#ccfbf1" stroke-width="5" stroke-linecap="round" stroke-linejoin="round" fill="none"/><circle cx="90.72" cy="35.28" r="6.300000000000001" fill="#2dd4bf"/></g></g>
  <g transform="translate(56 378)">
    <rect width="272" height="31" rx="15" fill="rgba(255,255,255,0.14)"/>
    <text x="15" y="20" fill="#ccfbf1" font-family="Inter, Arial, sans-serif" font-size="13" font-weight="800">Article card · Local processing</text>
  </g>
</svg>
