<svg xmlns="http://www.w3.org/2000/svg" width="800" height="450" viewBox="0 0 800 450" role="img" aria-label="HTML Entity Encoding Publishing Check cover image">
  <defs>
    <linearGradient id="bg" x1="0" y1="0" x2="1" y2="1">
      <stop offset="0" stop-color="#3b0764"/>
      <stop offset="0.58" stop-color="#7e22ce"/>
      <stop offset="1" stop-color="#c084fc"/>
    </linearGradient>
    <pattern id="grid" width="77" height="77" patternUnits="userSpaceOnUse">
      <path d="M77 0H0V77" fill="none" stroke="rgba(255,255,255,0.12)" stroke-width="1" stroke-dasharray="13 19"/>
    </pattern>
    <filter id="softShadow" x="-20%" y="-20%" width="140%" height="140%">
      <feDropShadow dx="0" dy="18" stdDeviation="18" flood-color="#000" flood-opacity="0.24"/>
    </filter>
  </defs>
  <rect width="800" height="450" fill="url(#bg)"/>
  <rect width="800" height="450" fill="url(#grid)" opacity="0.58"/>
  <circle cx="414" cy="214" r="9" fill="#f5f3ff" opacity="0.1"/><circle cx="144" cy="341" r="8" fill="#f5f3ff" opacity="0.14"/><circle cx="247" cy="17" r="7" fill="#f5f3ff" opacity="0.18"/><circle cx="299" cy="144" r="6" fill="#f5f3ff" opacity="0.22"/><circle cx="166" cy="271" r="5" fill="#f5f3ff" opacity="0.1"/><circle cx="592" cy="398" r="4" fill="#f5f3ff" opacity="0.14"/><circle cx="0" cy="75" r="21" fill="#f5f3ff" opacity="0.18"/><circle cx="410" cy="201" r="20" fill="#f5f3ff" opacity="0.22"/>
  <path d="M496 0C688 90 656 324 800 450" fill="rgba(255,255,255,0.12)"/>
  <rect x="56" y="45" width="176" height="8" rx="4" fill="#c084fc"/>
  <text x="56" y="90" fill="rgba(255,255,255,0.78)" font-family="Inter, Arial, sans-serif" font-size="15" font-weight="800" letter-spacing="3">TEXT UTILITY</text>
  <text x="56" y="140" fill="#fff" font-family="Inter, Arial, sans-serif" font-size="32" font-weight="850">HTML Entity Encoding</text>
  <text x="56" y="176" fill="#fff" font-family="Inter, Arial, sans-serif" font-size="32" font-weight="850">Publishing Check</text>
  <text x="56" y="306" fill="rgba(255,255,255,0.84)" font-family="Inter, Arial, sans-serif" font-size="17" font-weight="650">prepare snippets that include special</text>
  <text x="56" y="327" fill="rgba(255,255,255,0.84)" font-family="Inter, Arial, sans-serif" font-size="17" font-weight="650">characters</text>
  <g filter="url(#softShadow)"><g transform="translate(576 77)"><rect x="15.12" y="15.12" width="95.76" height="95.76" rx="10.08" fill="rgba(255,255,255,0.12)"/><path d="M30.24 40.32h57.96M30.24 57.96h47.88M30.24 75.6h55.44" stroke="#f5f3ff" stroke-width="5" stroke-linecap="round" stroke-linejoin="round" fill="none"/><path d="M90.72 90.72l15.12 15.12" stroke="#f5f3ff" stroke-width="5" stroke-linecap="round" stroke-linejoin="round" fill="none"/><circle cx="88.19999999999999" cy="88.19999999999999" r="10.08" fill="#c084fc"/></g></g>
  <g transform="translate(56 378)">
    <rect width="272" height="31" rx="15" fill="rgba(255,255,255,0.14)"/>
    <text x="15" y="20" fill="#f5f3ff" font-family="Inter, Arial, sans-serif" font-size="13" font-weight="800">Article card · Editorial review</text>
  </g>
</svg>
