<svg xmlns="http://www.w3.org/2000/svg" width="800" height="450" viewBox="0 0 800 450" role="img" aria-label="PDF to Word Editing Decision Guide for Client Documents cover image">
  <defs>
    <linearGradient id="bg" x1="0" y1="0" x2="1" y2="1">
      <stop offset="0" stop-color="#172554"/>
      <stop offset="0.58" stop-color="#2563eb"/>
      <stop offset="1" stop-color="#38bdf8"/>
    </linearGradient>
    <pattern id="grid" width="75" height="75" patternUnits="userSpaceOnUse">
      <path d="M75 0H0V75" fill="none" stroke="rgba(255,255,255,0.12)" stroke-width="1" stroke-dasharray="11 17"/>
    </pattern>
    <filter id="softShadow" x="-20%" y="-20%" width="140%" height="140%">
      <feDropShadow dx="0" dy="18" stdDeviation="18" flood-color="#000" flood-opacity="0.24"/>
    </filter>
  </defs>
  <rect width="800" height="450" fill="url(#bg)"/>
  <rect width="800" height="450" fill="url(#grid)" opacity="0.58"/>
  <circle cx="713" cy="18" r="13" fill="#f8fafc" opacity="0.1"/><circle cx="232" cy="145" r="12" fill="#f8fafc" opacity="0.14"/><circle cx="423" cy="272" r="11" fill="#f8fafc" opacity="0.18"/><circle cx="33" cy="398" r="10" fill="#f8fafc" opacity="0.22"/><circle cx="77" cy="75" r="9" fill="#f8fafc" opacity="0.1"/><circle cx="395" cy="202" r="8" fill="#f8fafc" opacity="0.14"/><circle cx="103" cy="329" r="7" fill="#f8fafc" opacity="0.18"/><circle cx="155" cy="6" r="6" fill="#f8fafc" opacity="0.22"/>
  <path d="M496 0C688 90 656 324 800 450" fill="rgba(255,255,255,0.12)"/>
  <rect x="56" y="45" width="176" height="8" rx="4" fill="#38bdf8"/>
  <text x="56" y="90" fill="rgba(255,255,255,0.78)" font-family="Inter, Arial, sans-serif" font-size="15" font-weight="800" letter-spacing="3">PDF WORKFLOW</text>
  <text x="56" y="140" fill="#fff" font-family="Inter, Arial, sans-serif" font-size="41" font-weight="850">PDF to Word Editing Decision</text>
  <text x="56" y="186" fill="#fff" font-family="Inter, Arial, sans-serif" font-size="41" font-weight="850">Guide for Client Documents</text>
  <text x="56" y="306" fill="rgba(255,255,255,0.84)" font-family="Inter, Arial, sans-serif" font-size="18" font-weight="650">decide when conversion is safer than</text>
  <text x="56" y="329" fill="rgba(255,255,255,0.84)" font-family="Inter, Arial, sans-serif" font-size="18" font-weight="650">rebuilding content</text>
  <g filter="url(#softShadow)"><g transform="translate(528 77)"><rect x="27.54" y="9.18" width="88.74" height="119.34" rx="9.18" fill="#38bdf8" opacity="0.22"/><rect x="9.18" y="27.54" width="88.74" height="119.34" rx="9.18" fill="rgba(255,255,255,0.13)"/><path d="M30.6 64.25999999999999h45.9M30.6 85.68h36.72M30.6 107.1h48.96M67.32000000000001 39.78l12.24 12.24 27.54-30.6" stroke="#f8fafc" stroke-width="5" stroke-linecap="round" stroke-linejoin="round" fill="none"/></g></g>
  <g transform="translate(56 378)">
    <rect width="272" height="32" rx="16" fill="rgba(255,255,255,0.14)"/>
    <text x="16" y="21" fill="#f8fafc" font-family="Inter, Arial, sans-serif" font-size="14" font-weight="800">Article card · Review packet</text>
  </g>
</svg>
