<svg xmlns="http://www.w3.org/2000/svg" width="800" height="450" viewBox="0 0 800 450" role="img" aria-label="Word Count Editing Workflow for Client Copy cover image">
  <defs>
    <linearGradient id="bg" x1="0" y1="0" x2="1" y2="1">
      <stop offset="0" stop-color="#3b0764"/>
      <stop offset="0.58" stop-color="#7e22ce"/>
      <stop offset="1" stop-color="#c084fc"/>
    </linearGradient>
    <pattern id="grid" width="54" height="54" patternUnits="userSpaceOnUse">
      <path d="M54 0H0V54" fill="none" stroke="rgba(255,255,255,0.12)" stroke-width="1" stroke-dasharray="8 14"/>
    </pattern>
    <filter id="softShadow" x="-20%" y="-20%" width="140%" height="140%">
      <feDropShadow dx="0" dy="18" stdDeviation="18" flood-color="#000" flood-opacity="0.24"/>
    </filter>
  </defs>
  <rect width="800" height="450" fill="url(#bg)"/>
  <rect width="800" height="450" fill="url(#grid)" opacity="0.58"/>
  <circle cx="202" cy="214" r="4" fill="#f5f3ff" opacity="0.1"/><circle cx="629" cy="340" r="21" fill="#f5f3ff" opacity="0.14"/><circle cx="163" cy="17" r="20" fill="#f5f3ff" opacity="0.18"/><circle cx="149" cy="144" r="19" fill="#f5f3ff" opacity="0.22"/><circle cx="177" cy="271" r="18" fill="#f5f3ff" opacity="0.1"/><circle cx="465" cy="398" r="17" fill="#f5f3ff" opacity="0.14"/><circle cx="483" cy="74" r="16" fill="#f5f3ff" opacity="0.18"/><circle cx="533" cy="201" r="15" fill="#f5f3ff" opacity="0.22"/>
  <path d="M496 0C688 90 656 324 800 450" fill="rgba(255,255,255,0.12)"/>
  <rect x="56" y="45" width="176" height="8" rx="4" fill="#c084fc"/>
  <text x="56" y="90" fill="rgba(255,255,255,0.78)" font-family="Inter, Arial, sans-serif" font-size="15" font-weight="800" letter-spacing="3">TEXT UTILITY</text>
  <text x="56" y="140" fill="#fff" font-family="Inter, Arial, sans-serif" font-size="41" font-weight="850">Word Count Editing Workflow</text>
  <text x="56" y="186" fill="#fff" font-family="Inter, Arial, sans-serif" font-size="41" font-weight="850">for Client Copy</text>
  <text x="56" y="306" fill="rgba(255,255,255,0.84)" font-family="Inter, Arial, sans-serif" font-size="18" font-weight="650">trim copy to fit review and publishing</text>
  <text x="56" y="329" fill="rgba(255,255,255,0.84)" font-family="Inter, Arial, sans-serif" font-size="18" font-weight="650">limits</text>
  <g filter="url(#softShadow)"><g transform="translate(528 77)"><rect x="18.36" y="18.36" width="116.28" height="116.28" rx="12.24" fill="rgba(255,255,255,0.12)"/><path d="M36.72 48.96h70.38000000000001M36.72 70.38000000000001h58.14M36.72 91.8h67.32000000000001" stroke="#f5f3ff" stroke-width="5" stroke-linecap="round" stroke-linejoin="round" fill="none"/><path d="M110.16 110.16l18.36 18.36" stroke="#f5f3ff" stroke-width="5" stroke-linecap="round" stroke-linejoin="round" fill="none"/><circle cx="107.1" cy="107.1" r="12.24" fill="#c084fc"/></g></g>
  <g transform="translate(56 378)">
    <rect width="272" height="32" rx="16" fill="rgba(255,255,255,0.14)"/>
    <text x="16" y="21" fill="#f5f3ff" font-family="Inter, Arial, sans-serif" font-size="14" font-weight="800">Article card · Editorial review</text>
  </g>
</svg>
