<svg xmlns="http://www.w3.org/2000/svg" width="1200" height="675" viewBox="0 0 1200 675" role="img" aria-label="Islamic Finance Investing: Screening Workflow Basics cover image">
  <defs>
    <linearGradient id="bg" x1="0" y1="0" x2="1" y2="1">
      <stop offset="0" stop-color="#052e16"/>
      <stop offset="0.58" stop-color="#047857"/>
      <stop offset="1" stop-color="#22c55e"/>
    </linearGradient>
    <pattern id="grid" width="66" height="66" patternUnits="userSpaceOnUse">
      <path d="M66 0H0V66" fill="none" stroke="rgba(255,255,255,0.12)" stroke-width="1" stroke-dasharray="8 14"/>
    </pattern>
    <filter id="softShadow" x="-20%" y="-20%" width="140%" height="140%">
      <feDropShadow dx="0" dy="18" stdDeviation="18" flood-color="#000" flood-opacity="0.24"/>
    </filter>
  </defs>
  <rect width="1200" height="675" fill="url(#bg)"/>
  <rect width="1200" height="675" fill="url(#grid)" opacity="0.58"/>
  <circle cx="491" cy="631" r="4" fill="#dcfce7" opacity="0.1"/><circle cx="168" cy="146" r="21" fill="#dcfce7" opacity="0.14"/><circle cx="481" cy="336" r="20" fill="#dcfce7" opacity="0.18"/><circle cx="306" cy="527" r="19" fill="#dcfce7" opacity="0.22"/><circle cx="857" cy="42" r="18" fill="#dcfce7" opacity="0.1"/><circle cx="730" cy="232" r="17" fill="#dcfce7" opacity="0.14"/><circle cx="885" cy="422" r="16" fill="#dcfce7" opacity="0.18"/><circle cx="805" cy="612" r="15" fill="#dcfce7" opacity="0.22"/>
  <path d="M744 0C1032 135 984 486 1200 675" fill="rgba(255,255,255,0.12)"/>
  <rect x="84" y="68" width="264" height="8" rx="4" fill="#22c55e"/>
  <text x="84" y="135" fill="rgba(255,255,255,0.78)" font-family="Inter, Arial, sans-serif" font-size="21" font-weight="800" letter-spacing="3">FINANCE CALCULATOR</text>
  <text x="84" y="209" fill="#fff" font-family="Inter, Arial, sans-serif" font-size="58" font-weight="850">Islamic Finance Investing:</text>
  <text x="84" y="274" fill="#fff" font-family="Inter, Arial, sans-serif" font-size="58" font-weight="850">Screening Workflow Basics</text>
  <text x="84" y="459" fill="rgba(255,255,255,0.84)" font-family="Inter, Arial, sans-serif" font-size="24" font-weight="650">Islamic Finance Investing: Screening Workflow Basics</text>
  <text x="84" y="489" fill="rgba(255,255,255,0.84)" font-family="Inter, Arial, sans-serif" font-size="24" font-weight="650">with transparent assumptions, practical review…</text>
  <g filter="url(#softShadow)"><g transform="translate(792 115)"><rect x="18.400000000000002" y="27.599999999999998" width="193.2" height="165.6" rx="23" fill="rgba(255,255,255,0.13)"/><path d="M41.4 151.8l41.4-41.4 36.800000000000004 18.400000000000002 55.199999999999996-69" stroke="#dcfce7" stroke-width="8" stroke-linecap="round" stroke-linejoin="round" fill="none"/><circle cx="50.6" cy="69" r="13.799999999999999" fill="#22c55e"/><path d="M46 179.4h128.8" stroke="#dcfce7" stroke-width="8" stroke-linecap="round" stroke-linejoin="round" fill="none"/></g></g>
  <g transform="translate(84 567)">
    <rect width="408" height="43" rx="22" fill="rgba(255,255,255,0.14)"/>
    <text x="22" y="28" fill="#dcfce7" font-family="Inter, Arial, sans-serif" font-size="19" font-weight="800">Featured article · Assumption review</text>
  </g>
</svg>
