<svg xmlns="http://www.w3.org/2000/svg" width="1200" height="675" viewBox="0 0 1200 675" role="img" aria-label="Regex Review Checklist Before Production Release cover image">
  <defs>
    <linearGradient id="bg" x1="0" y1="0" x2="1" y2="1">
      <stop offset="0" stop-color="#020617"/>
      <stop offset="0.58" stop-color="#334155"/>
      <stop offset="1" stop-color="#06b6d4"/>
    </linearGradient>
    <pattern id="grid" width="67" height="67" patternUnits="userSpaceOnUse">
      <path d="M67 0H0V67" fill="none" stroke="rgba(255,255,255,0.12)" stroke-width="1" stroke-dasharray="9 15"/>
    </pattern>
    <filter id="softShadow" x="-20%" y="-20%" width="140%" height="140%">
      <feDropShadow dx="0" dy="18" stdDeviation="18" flood-color="#000" flood-opacity="0.24"/>
    </filter>
  </defs>
  <rect width="1200" height="675" fill="url(#bg)"/>
  <rect width="1200" height="675" fill="url(#grid)" opacity="0.58"/>
  <circle cx="1106" cy="183" r="5" fill="#dbeafe" opacity="0.1"/><circle cx="8" cy="374" r="4" fill="#dbeafe" opacity="0.14"/><circle cx="21" cy="564" r="21" fill="#dbeafe" opacity="0.18"/><circle cx="417" cy="79" r="20" fill="#dbeafe" opacity="0.22"/><circle cx="19" cy="269" r="19" fill="#dbeafe" opacity="0.1"/><circle cx="719" cy="459" r="18" fill="#dbeafe" opacity="0.14"/><circle cx="6" cy="650" r="17" fill="#dbeafe" opacity="0.18"/><circle cx="55" cy="165" r="16" fill="#dbeafe" opacity="0.22"/>
  <path d="M744 0C1032 135 984 486 1200 675" fill="rgba(255,255,255,0.12)"/>
  <rect x="84" y="68" width="264" height="8" rx="4" fill="#06b6d4"/>
  <text x="84" y="135" fill="rgba(255,255,255,0.78)" font-family="Inter, Arial, sans-serif" font-size="21" font-weight="800" letter-spacing="3">DEVELOPER UTILITY</text>
  <text x="84" y="209" fill="#fff" font-family="Inter, Arial, sans-serif" font-size="58" font-weight="850">Regex Review Checklist Before</text>
  <text x="84" y="274" fill="#fff" font-family="Inter, Arial, sans-serif" font-size="58" font-weight="850">Production Release</text>
  <text x="84" y="459" fill="rgba(255,255,255,0.84)" font-family="Inter, Arial, sans-serif" font-size="24" font-weight="650">test regular expressions with safer sample cases</text>
  <g filter="url(#softShadow)"><g transform="translate(792 115)"><rect x="13.799999999999999" y="32.2" width="202.4" height="165.6" rx="18.400000000000002" fill="rgba(255,255,255,0.12)"/><path d="M82.8 82.8l-32.2 32.2 32.2 32.2M147.20000000000002 82.8l32.2 32.2-32.2 32.2M124.2 69l-23 92" stroke="#dbeafe" stroke-width="8" stroke-linecap="round" stroke-linejoin="round" fill="none"/><circle cx="41.4" cy="55.199999999999996" r="5.75" fill="#06b6d4"/></g></g>
  <g transform="translate(84 567)">
    <rect width="408" height="43" rx="22" fill="rgba(255,255,255,0.14)"/>
    <text x="22" y="28" fill="#dbeafe" font-family="Inter, Arial, sans-serif" font-size="19" font-weight="800">Featured article · Debug path</text>
  </g>
</svg>
