<svg xmlns="http://www.w3.org/2000/svg" width="1200" height="675" viewBox="0 0 1200 675" role="img" aria-label="Age Calculator Records Lesson for Forms and Timelines cover image">
  <defs>
    <linearGradient id="bg" x1="0" y1="0" x2="1" y2="1">
      <stop offset="0" stop-color="#451a03"/>
      <stop offset="0.58" stop-color="#b45309"/>
      <stop offset="1" stop-color="#f59e0b"/>
    </linearGradient>
    <pattern id="grid" width="75" height="75" patternUnits="userSpaceOnUse">
      <path d="M75 0H0V75" fill="none" stroke="rgba(255,255,255,0.12)" stroke-width="1" stroke-dasharray="11 17"/>
    </pattern>
    <filter id="softShadow" x="-20%" y="-20%" width="140%" height="140%">
      <feDropShadow dx="0" dy="18" stdDeviation="18" flood-color="#000" flood-opacity="0.24"/>
    </filter>
  </defs>
  <rect width="1200" height="675" fill="url(#bg)"/>
  <rect width="1200" height="675" fill="url(#grid)" opacity="0.58"/>
  <circle cx="296" cy="411" r="19" fill="#fffbeb" opacity="0.1"/><circle cx="506" cy="602" r="18" fill="#fffbeb" opacity="0.14"/><circle cx="962" cy="117" r="17" fill="#fffbeb" opacity="0.18"/><circle cx="1174" cy="307" r="16" fill="#fffbeb" opacity="0.22"/><circle cx="208" cy="497" r="15" fill="#fffbeb" opacity="0.1"/><circle cx="992" cy="12" r="14" fill="#fffbeb" opacity="0.14"/><circle cx="311" cy="203" r="13" fill="#fffbeb" opacity="0.18"/><circle cx="144" cy="393" r="12" fill="#fffbeb" opacity="0.22"/>
  <path d="M744 0C1032 135 984 486 1200 675" fill="rgba(255,255,255,0.12)"/>
  <rect x="84" y="68" width="264" height="8" rx="4" fill="#f59e0b"/>
  <text x="84" y="135" fill="rgba(255,255,255,0.78)" font-family="Inter, Arial, sans-serif" font-size="21" font-weight="800" letter-spacing="3">EDUCATION WORKFLOW</text>
  <text x="84" y="209" fill="#fff" font-family="Inter, Arial, sans-serif" font-size="58" font-weight="850">Age Calculator Records Lesson for</text>
  <text x="84" y="274" fill="#fff" font-family="Inter, Arial, sans-serif" font-size="58" font-weight="850">Forms and Timelines</text>
  <text x="84" y="459" fill="rgba(255,255,255,0.84)" font-family="Inter, Arial, sans-serif" font-size="24" font-weight="650">teach date differences with real form examples</text>
  <g filter="url(#softShadow)"><g transform="translate(792 115)"><circle cx="115" cy="101.2" r="59.800000000000004" fill="rgba(255,255,255,0.13)"/><path d="M50.6 110.39999999999999l64.4-32.2 64.4 32.2-64.4 32.2zM115 142.6v36.800000000000004" stroke="#fffbeb" stroke-width="8" stroke-linecap="round" stroke-linejoin="round" fill="none"/><rect x="64.4" y="174.8" width="101.2" height="18.400000000000002" rx="9.200000000000001" fill="#f59e0b"/></g></g>
  <g transform="translate(84 567)">
    <rect width="408" height="43" rx="22" fill="rgba(255,255,255,0.14)"/>
    <text x="22" y="28" fill="#fffbeb" font-family="Inter, Arial, sans-serif" font-size="19" font-weight="800">Featured article · Guided practice</text>
  </g>
</svg>
