<svg xmlns="http://www.w3.org/2000/svg" width="1200" height="675" viewBox="0 0 1200 675" role="img" aria-label="User Agent Parser Support Triage Workflow cover image">
  <defs>
    <linearGradient id="bg" x1="0" y1="0" x2="1" y2="1">
      <stop offset="0" stop-color="#042f2e"/>
      <stop offset="0.58" stop-color="#0f766e"/>
      <stop offset="1" stop-color="#2dd4bf"/>
    </linearGradient>
    <pattern id="grid" width="75" height="75" patternUnits="userSpaceOnUse">
      <path d="M75 0H0V75" fill="none" stroke="rgba(255,255,255,0.12)" stroke-width="1" stroke-dasharray="11 17"/>
    </pattern>
    <filter id="softShadow" x="-20%" y="-20%" width="140%" height="140%">
      <feDropShadow dx="0" dy="18" stdDeviation="18" flood-color="#000" flood-opacity="0.24"/>
    </filter>
  </defs>
  <rect width="1200" height="675" fill="url(#bg)"/>
  <rect width="1200" height="675" fill="url(#grid)" opacity="0.58"/>
  <circle cx="118" cy="303" r="19" fill="#ccfbf1" opacity="0.1"/><circle cx="112" cy="493" r="18" fill="#ccfbf1" opacity="0.14"/><circle cx="574" cy="8" r="17" fill="#ccfbf1" opacity="0.18"/><circle cx="692" cy="198" r="16" fill="#ccfbf1" opacity="0.22"/><circle cx="1121" cy="388" r="15" fill="#ccfbf1" opacity="0.1"/><circle cx="307" cy="579" r="14" fill="#ccfbf1" opacity="0.14"/><circle cx="831" cy="94" r="13" fill="#ccfbf1" opacity="0.18"/><circle cx="317" cy="284" r="12" fill="#ccfbf1" opacity="0.22"/>
  <path d="M744 0C1032 135 984 486 1200 675" fill="rgba(255,255,255,0.12)"/>
  <rect x="84" y="68" width="264" height="8" rx="4" fill="#2dd4bf"/>
  <text x="84" y="135" fill="rgba(255,255,255,0.78)" font-family="Inter, Arial, sans-serif" font-size="21" font-weight="800" letter-spacing="3">PRIVACY WORKFLOW</text>
  <text x="84" y="209" fill="#fff" font-family="Inter, Arial, sans-serif" font-size="58" font-weight="850">User Agent Parser Support Triage</text>
  <text x="84" y="274" fill="#fff" font-family="Inter, Arial, sans-serif" font-size="58" font-weight="850">Workflow</text>
  <text x="84" y="459" fill="rgba(255,255,255,0.84)" font-family="Inter, Arial, sans-serif" font-size="24" font-weight="650">understand browser details in support reports</text>
  <g filter="url(#softShadow)"><g transform="translate(792 115)"><path d="M115 18.400000000000002l78.2 27.599999999999998v64.4c0 50.6-32.2 87.4-78.2 110.39999999999999-78.2-23-78.2-59.800000000000004-78.2-110.39999999999999V46z" fill="rgba(255,255,255,0.14)"/><path d="M78.2 115l27.599999999999998 27.599999999999998 55.199999999999996-64.4" stroke="#ccfbf1" stroke-width="8" stroke-linecap="round" stroke-linejoin="round" fill="none"/><circle cx="165.6" cy="64.4" r="11.5" fill="#2dd4bf"/></g></g>
  <g transform="translate(84 567)">
    <rect width="408" height="43" rx="22" fill="rgba(255,255,255,0.14)"/>
    <text x="22" y="28" fill="#ccfbf1" font-family="Inter, Arial, sans-serif" font-size="19" font-weight="800">Featured article · Local processing</text>
  </g>
</svg>
