<svg xmlns="http://www.w3.org/2000/svg" width="1200" height="675" viewBox="0 0 1200 675" role="img" aria-label="PNG to JPG Decision Guide for Non-Designers cover image">
  <defs>
    <linearGradient id="bg" x1="0" y1="0" x2="1" y2="1">
      <stop offset="0" stop-color="#3b0764"/>
      <stop offset="0.58" stop-color="#7c3aed"/>
      <stop offset="1" stop-color="#fb7185"/>
    </linearGradient>
    <pattern id="grid" width="62" height="62" patternUnits="userSpaceOnUse">
      <path d="M62 0H0V62" fill="none" stroke="rgba(255,255,255,0.12)" stroke-width="1" stroke-dasharray="10 16"/>
    </pattern>
    <filter id="softShadow" x="-20%" y="-20%" width="140%" height="140%">
      <feDropShadow dx="0" dy="18" stdDeviation="18" flood-color="#000" flood-opacity="0.24"/>
    </filter>
  </defs>
  <rect width="1200" height="675" fill="url(#bg)"/>
  <rect width="1200" height="675" fill="url(#grid)" opacity="0.58"/>
  <circle cx="522" cy="6" r="12" fill="#fef3c7" opacity="0.1"/><circle cx="9" cy="196" r="11" fill="#fef3c7" opacity="0.14"/><circle cx="534" cy="387" r="10" fill="#fef3c7" opacity="0.18"/><circle cx="625" cy="577" r="9" fill="#fef3c7" opacity="0.22"/><circle cx="1156" cy="92" r="8" fill="#fef3c7" opacity="0.1"/><circle cx="502" cy="282" r="7" fill="#fef3c7" opacity="0.14"/><circle cx="300" cy="472" r="6" fill="#fef3c7" opacity="0.18"/><circle cx="45" cy="663" r="5" fill="#fef3c7" opacity="0.22"/>
  <path d="M744 0C1032 135 984 486 1200 675" fill="rgba(255,255,255,0.12)"/>
  <rect x="84" y="68" width="264" height="8" rx="4" fill="#fb7185"/>
  <text x="84" y="135" fill="rgba(255,255,255,0.78)" font-family="Inter, Arial, sans-serif" font-size="21" font-weight="800" letter-spacing="3">IMAGE OPTIMIZATION</text>
  <text x="84" y="209" fill="#fff" font-family="Inter, Arial, sans-serif" font-size="58" font-weight="850">PNG to JPG Decision Guide for</text>
  <text x="84" y="274" fill="#fff" font-family="Inter, Arial, sans-serif" font-size="58" font-weight="850">Non-Designers</text>
  <text x="84" y="459" fill="rgba(255,255,255,0.84)" font-family="Inter, Arial, sans-serif" font-size="24" font-weight="650">choose the right format for practical image tasks</text>
  <g filter="url(#softShadow)"><g transform="translate(792 115)"><rect x="18.400000000000002" y="36.800000000000004" width="188.6" height="142.6" rx="18.400000000000002" fill="rgba(255,255,255,0.14)"/><circle cx="156.4" cy="78.2" r="18.400000000000002" fill="#fb7185"/><path d="M36.800000000000004 156.4l50.6-50.6 36.800000000000004 32.2 27.599999999999998-36.800000000000004 41.4 55.199999999999996" stroke="#fef3c7" stroke-width="8" stroke-linecap="round" stroke-linejoin="round" fill="none"/><path d="M0 18.400000000000002h41.4M188.6 197.79999999999998H230" stroke="#fef3c7" stroke-width="8" stroke-linecap="round" stroke-linejoin="round" fill="none"/></g></g>
  <g transform="translate(84 567)">
    <rect width="408" height="43" rx="22" fill="rgba(255,255,255,0.14)"/>
    <text x="22" y="28" fill="#fef3c7" font-family="Inter, Arial, sans-serif" font-size="19" font-weight="800">Featured article · Visual quality</text>
  </g>
</svg>
