<svg xmlns="http://www.w3.org/2000/svg" width="1200" height="630" viewBox="0 0 1200 630" role="img" aria-label="Mind Map Study Guide Workflow cover image">
  <defs>
    <linearGradient id="bg" x1="0" y1="0" x2="1" y2="1">
      <stop offset="0" stop-color="#451a03"/>
      <stop offset="0.58" stop-color="#b45309"/>
      <stop offset="1" stop-color="#f59e0b"/>
    </linearGradient>
    <pattern id="grid" width="75" height="75" patternUnits="userSpaceOnUse">
      <path d="M75 0H0V75" fill="none" stroke="rgba(255,255,255,0.12)" stroke-width="1" stroke-dasharray="11 17"/>
    </pattern>
    <filter id="softShadow" x="-20%" y="-20%" width="140%" height="140%">
      <feDropShadow dx="0" dy="18" stdDeviation="18" flood-color="#000" flood-opacity="0.24"/>
    </filter>
  </defs>
  <rect width="1200" height="630" fill="url(#bg)"/>
  <rect width="1200" height="630" fill="url(#grid)" opacity="0.58"/>
  <circle cx="430" cy="519" r="7" fill="#fffbeb" opacity="0.1"/><circle cx="893" cy="66" r="6" fill="#fffbeb" opacity="0.14"/><circle cx="844" cy="244" r="5" fill="#fffbeb" opacity="0.18"/><circle cx="326" cy="421" r="4" fill="#fffbeb" opacity="0.22"/><circle cx="319" cy="599" r="21" fill="#fffbeb" opacity="0.1"/><circle cx="417" cy="147" r="20" fill="#fffbeb" opacity="0.14"/><circle cx="905" cy="324" r="19" fill="#fffbeb" opacity="0.18"/><circle cx="672" cy="502" r="18" fill="#fffbeb" opacity="0.22"/>
  <path d="M744 0C1032 126 984 454 1200 630" fill="rgba(255,255,255,0.12)"/>
  <rect x="84" y="63" width="264" height="8" rx="4" fill="#f59e0b"/>
  <text x="84" y="126" fill="rgba(255,255,255,0.78)" font-family="Inter, Arial, sans-serif" font-size="21" font-weight="800" letter-spacing="3">EDUCATION WORKFLOW</text>
  <text x="84" y="195" fill="#fff" font-family="Inter, Arial, sans-serif" font-size="58" font-weight="850">Mind Map Study Guide Workflow</text>
  <text x="84" y="428" fill="rgba(255,255,255,0.84)" font-family="Inter, Arial, sans-serif" font-size="24" font-weight="650">turn course notes into visible study structure</text>
  <g filter="url(#softShadow)"><g transform="translate(792 107)"><circle cx="107" cy="94.16" r="55.64" fill="rgba(255,255,255,0.13)"/><path d="M47.08 102.72l59.92000000000001-29.960000000000004 59.92000000000001 29.960000000000004-59.92000000000001 29.960000000000004zM107 132.68v34.24" stroke="#fffbeb" stroke-width="8" stroke-linecap="round" stroke-linejoin="round" fill="none"/><rect x="59.92000000000001" y="162.64000000000001" width="94.16" height="17.12" rx="8.56" fill="#f59e0b"/></g></g>
  <g transform="translate(84 529)">
    <rect width="408" height="43" rx="22" fill="rgba(255,255,255,0.14)"/>
    <text x="22" y="28" fill="#fffbeb" font-family="Inter, Arial, sans-serif" font-size="19" font-weight="800">Open Graph · Guided practice</text>
  </g>
</svg>
