<svg xmlns="http://www.w3.org/2000/svg" width="1200" height="630" viewBox="0 0 1200 630" role="img" aria-label="Rotate and Flip Image Intake Checklist cover image">
  <defs>
    <linearGradient id="bg" x1="0" y1="0" x2="1" y2="1">
      <stop offset="0" stop-color="#3b0764"/>
      <stop offset="0.58" stop-color="#7c3aed"/>
      <stop offset="1" stop-color="#fb7185"/>
    </linearGradient>
    <pattern id="grid" width="54" height="54" patternUnits="userSpaceOnUse">
      <path d="M54 0H0V54" fill="none" stroke="rgba(255,255,255,0.12)" stroke-width="1" stroke-dasharray="8 14"/>
    </pattern>
    <filter id="softShadow" x="-20%" y="-20%" width="140%" height="140%">
      <feDropShadow dx="0" dy="18" stdDeviation="18" flood-color="#000" flood-opacity="0.24"/>
    </filter>
  </defs>
  <rect width="1200" height="630" fill="url(#bg)"/>
  <rect width="1200" height="630" fill="url(#grid)" opacity="0.58"/>
  <circle cx="784" cy="268" r="16" fill="#fef3c7" opacity="0.1"/><circle cx="827" cy="446" r="15" fill="#fef3c7" opacity="0.14"/><circle cx="386" cy="623" r="14" fill="#fef3c7" opacity="0.18"/><circle cx="1028" cy="171" r="13" fill="#fef3c7" opacity="0.22"/><circle cx="851" cy="348" r="12" fill="#fef3c7" opacity="0.1"/><circle cx="473" cy="526" r="11" fill="#fef3c7" opacity="0.14"/><circle cx="64" cy="73" r="10" fill="#fef3c7" opacity="0.18"/><circle cx="232" cy="251" r="9" fill="#fef3c7" opacity="0.22"/>
  <path d="M744 0C1032 126 984 454 1200 630" fill="rgba(255,255,255,0.12)"/>
  <rect x="84" y="63" width="264" height="8" rx="4" fill="#fb7185"/>
  <text x="84" y="126" fill="rgba(255,255,255,0.78)" font-family="Inter, Arial, sans-serif" font-size="21" font-weight="800" letter-spacing="3">IMAGE OPTIMIZATION</text>
  <text x="84" y="195" fill="#fff" font-family="Inter, Arial, sans-serif" font-size="58" font-weight="850">Rotate and Flip Image Intake</text>
  <text x="84" y="260" fill="#fff" font-family="Inter, Arial, sans-serif" font-size="58" font-weight="850">Checklist</text>
  <text x="84" y="428" fill="rgba(255,255,255,0.84)" font-family="Inter, Arial, sans-serif" font-size="24" font-weight="650">correct orientation issues before publishing</text>
  <g filter="url(#softShadow)"><g transform="translate(792 107)"><rect x="17.12" y="34.24" width="175.48" height="132.68" rx="17.12" fill="rgba(255,255,255,0.14)"/><circle cx="145.52" cy="72.76" r="17.12" fill="#fb7185"/><path d="M34.24 145.52l47.08-47.08 34.24 29.960000000000004 25.68-34.24 38.519999999999996 51.36" stroke="#fef3c7" stroke-width="8" stroke-linecap="round" stroke-linejoin="round" fill="none"/><path d="M0 17.12h38.519999999999996M175.48 184.04H214" stroke="#fef3c7" stroke-width="8" stroke-linecap="round" stroke-linejoin="round" fill="none"/></g></g>
  <g transform="translate(84 529)">
    <rect width="408" height="43" rx="22" fill="rgba(255,255,255,0.14)"/>
    <text x="22" y="28" fill="#fef3c7" font-family="Inter, Arial, sans-serif" font-size="19" font-weight="800">Open Graph · Visual quality</text>
  </g>
</svg>
